<?xml version="1.0" standalone="no"?>
<!DOCTYPE svg PUBLIC "-//W3C//DTD SVG 20010904//EN"
 "http://www.w3.org/TR/2001/REC-SVG-20010904/DTD/svg10.dtd">
<svg version="1.0" xmlns="http://www.w3.org/2000/svg"
 width="290.000000pt" height="174.000000pt" viewBox="0 0 290.000000 174.000000"
 preserveAspectRatio="xMidYMid meet">
<metadata>
Created by potrace 1.16, written by Peter Selinger 2001-2019
</metadata>
<g transform="translate(0.000000,174.000000) scale(0.100000,-0.100000)"
fill="#000000" stroke="none">
<path d="M1660 1320 l-300 -150 -182 0 c-159 0 -184 -2 -201 -17 -20 -17 -20
-17 -14 7 18 67 19 96 3 109 -27 23 -59 5 -97 -56 -20 -32 -89 -138 -152 -236
-113 -174 -124 -198 -93 -219 6 -4 28 -8 49 -8 28 0 37 -4 37 -17 0 -10 3 -27
5 -38 4 -15 -3 -24 -27 -36 -32 -15 -32 -15 -48 15 -19 39 -74 76 -112 76 -71
0 -128 -58 -128 -130 0 -81 65 -138 146 -126 l42 5 11 -43 c19 -76 74 -126
154 -141 26 -5 37 -12 37 -25 0 -10 12 -32 26 -49 47 -56 120 -49 198 19 52
46 79 104 80 168 1 61 -30 51 268 87 180 22 250 25 525 25 175 0 323 4 329 8
24 16 34 55 34 136 l0 86 87 0 c68 0 96 5 131 21 123 60 139 259 27 345 -32
24 -50 29 -115 34 l-77 5 -112 132 c-61 73 -121 139 -134 148 -48 33 -82 22
-397 -135z m-780 -249 c-16 -73 -30 -135 -30 -137 0 -2 43 -5 95 -6 l94 -3
-58 -90 -59 -89 34 -40 c39 -46 45 -89 14 -106 -25 -13 -50 -1 -74 35 -21 32
-28 32 -49 -4 -16 -27 -16 -29 3 -46 23 -21 35 -74 26 -111 -4 -15 -21 -40
-38 -56 -24 -22 -39 -28 -77 -28 -74 0 -121 48 -121 125 0 51 51 104 107 112
36 5 42 9 45 35 3 16 1 31 -4 34 -17 11 -8 63 14 78 21 15 16 16 -75 16 -53 0
-97 2 -97 5 0 12 275 426 277 418 2 -5 -10 -69 -27 -142z m418 7 c3 -28 3 -28
-57 -28 l-61 0 0 -110 0 -110 -30 0 -30 0 0 110 0 110 -50 0 c-49 0 -50 1 -50
30 l0 31 138 -3 137 -3 3 -27z m70 -68 c2 -75 6 -98 19 -107 23 -18 94 -16
121 3 20 14 22 23 22 110 l0 95 28 -3 27 -3 3 -91 c4 -146 -19 -177 -136 -177
-71 0 -125 19 -136 48 -3 9 -6 64 -6 121 l0 105 28 -3 27 -3 3 -95z m446 90
c52 -20 76 -103 43 -153 -13 -21 -13 -25 5 -47 24 -30 20 -64 -9 -68 -17 -3
-25 5 -37 31 -16 38 -54 57 -117 57 -37 0 -38 -1 -41 -42 -3 -38 -6 -43 -28
-43 l-25 0 -3 138 -3 137 95 0 c52 0 106 -4 120 -10z m271 -1 c61 -17 76 -35
76 -93 -1 -28 0 -68 1 -89 1 -27 -5 -44 -21 -60 -20 -20 -31 -22 -134 -22
l-112 0 -3 124 c-1 69 0 131 2 138 7 16 133 18 191 2z m349 -3 c49 -20 66 -51
66 -118 0 -102 -33 -137 -134 -145 -112 -9 -173 31 -183 119 -7 58 17 112 59
138 40 24 141 27 192 6z m-885 -332 c17 -21 21 -41 21 -95 0 -62 -2 -69 -20
-69 -18 0 -20 7 -20 56 0 67 -13 94 -45 94 -23 0 -24 -3 -27 -72 -2 -59 -6
-73 -20 -76 -15 -3 -18 7 -20 70 l-3 73 -32 3 -33 3 0 -75 c0 -69 -2 -76 -20
-76 -19 0 -20 7 -20 95 l0 95 109 0 c106 0 110 -1 130 -26z m210 16 c46 -24
51 -125 8 -155 -13 -9 -44 -15 -81 -15 -78 0 -106 23 -106 89 0 67 27 91 102
91 33 0 67 -4 77 -10z m201 0 c24 -13 44 -74 35 -108 -13 -52 -31 -62 -112
-62 l-73 0 0 90 0 90 66 0 c36 0 74 -4 84 -10z m220 -10 c0 -18 -7 -20 -65
-20 -50 0 -65 -3 -65 -14 0 -11 15 -16 52 -18 41 -2 54 -7 56 -20 3 -15 -5
-18 -52 -18 -49 0 -56 -2 -56 -20 0 -18 7 -20 65 -20 51 0 65 -3 65 -15 0 -12
-16 -15 -87 -15 l-88 0 2 87 c1 49 2 89 3 91 0 1 38 2 85 2 78 0 85 -2 85 -20z
m-1157 -311 c28 -39 -4 -116 -65 -162 -46 -34 -63 -38 -87 -21 -31 22 -26 49
13 79 20 15 40 42 47 63 6 20 16 43 22 50 15 19 54 14 70 -9z"/>
<path d="M2265 1025 c-46 -45 -29 -107 34 -126 82 -25 159 20 147 86 -9 46
-39 65 -103 65 -44 0 -58 -5 -78 -25z"/>
</g>
</svg>
