<svg id="svg" version="1.1" xmlns="http://www.w3.org/2000/svg" xmlns:xlink="http://www.w3.org/1999/xlink" width="400" height="240" viewBox="0, 0, 400,240"><g id="svgg"><path id="path0" d="M272.864 37.457 C 270.659 37.857,268.110 38.976,259.904 43.149 C 244.161 51.154,188.828 78.508,188.115 78.638 C 187.587 78.735,176.134 78.880,162.665 78.963 L 138.175 79.112 136.855 79.798 C 136.128 80.175,135.017 80.914,134.384 81.440 C 133.723 81.991,133.086 82.340,132.884 82.263 C 132.369 82.065,132.434 79.836,133.003 78.182 C 133.261 77.431,133.587 75.982,133.727 74.963 C 133.867 73.943,134.142 72.579,134.338 71.931 C 135.486 68.128,133.511 64.498,130.007 63.972 C 127.308 63.568,125.734 64.593,123.205 68.401 C 122.187 69.934,121.126 71.513,120.848 71.909 C 120.570 72.305,119.565 73.872,118.614 75.390 C 117.664 76.909,116.692 78.421,116.453 78.752 C 116.215 79.082,115.321 80.432,114.467 81.753 C 113.614 83.073,112.110 85.396,111.125 86.915 C 110.141 88.433,108.369 91.167,107.189 92.990 C 106.008 94.813,103.962 97.956,102.641 99.974 C 101.321 101.992,99.430 104.911,98.439 106.462 C 97.449 108.013,96.369 109.643,96.038 110.085 C 95.708 110.528,94.790 111.927,93.998 113.196 C 92.558 115.501,88.672 121.449,87.718 122.809 C 82.952 129.599,82.661 133.449,86.750 135.595 C 87.961 136.230,88.133 136.252,92.997 136.371 C 98.937 136.518,98.679 136.382,98.681 139.362 C 98.682 140.461,98.890 142.159,99.161 143.293 C 99.957 146.613,99.794 147.212,97.947 147.761 C 97.284 147.957,96.449 148.316,96.090 148.557 C 95.732 148.798,95.060 149.185,94.598 149.418 C 94.136 149.650,93.232 150.214,92.590 150.670 C 90.704 152.011,90.115 151.817,89.474 149.643 C 83.929 130.840,55.865 134.360,55.277 153.933 C 54.897 166.563,66.209 175.184,78.120 171.342 C 81.533 170.242,81.541 170.246,82.008 173.028 C 82.182 174.063,82.491 175.816,82.694 176.924 C 84.586 187.254,95.385 196.391,105.710 196.398 C 108.066 196.399,108.852 197.073,109.067 199.280 C 109.696 205.708,115.519 211.101,122.929 212.119 C 127.735 212.779,135.605 208.455,142.145 201.560 C 149.057 194.272,152.871 183.190,150.773 176.494 C 149.832 173.493,150.834 172.961,158.494 172.392 C 160.392 172.252,162.593 171.977,163.385 171.781 C 164.178 171.586,166.285 171.312,168.067 171.172 C 169.850 171.032,172.551 170.715,174.070 170.466 C 175.588 170.218,177.749 169.944,178.872 169.857 C 179.994 169.771,182.803 169.447,185.114 169.136 C 187.425 168.826,191.044 168.402,193.157 168.193 C 195.270 167.985,197.926 167.655,199.059 167.460 C 200.192 167.266,202.731 166.997,204.701 166.862 C 206.671 166.728,208.932 166.437,209.724 166.215 C 211.043 165.845,215.044 165.800,257.143 165.679 L 303.121 165.546 304.305 164.946 C 309.408 162.357,309.964 160.454,309.964 145.579 C 309.964 132.063,309.798 132.754,312.891 133.399 C 315.867 134.020,333.188 133.785,334.814 133.103 C 335.474 132.826,336.433 132.523,336.944 132.430 C 337.455 132.336,338.643 131.852,339.585 131.354 C 348.314 126.733,352.302 121.313,353.913 111.885 C 354.305 109.589,354.199 100.915,353.758 99.270 C 353.547 98.483,353.233 97.191,353.059 96.399 C 352.469 93.701,349.668 88.977,346.975 86.136 C 344.738 83.776,339.550 80.192,338.370 80.192 C 338.231 80.192,337.300 79.925,336.302 79.600 C 333.980 78.842,330.012 78.511,323.231 78.511 C 317.245 78.511,317.619 78.639,315.343 75.818 C 314.568 74.856,312.155 71.963,309.981 69.388 C 301.738 59.625,299.719 57.224,298.675 55.942 C 287.330 42.014,285.214 39.882,281.156 38.297 C 278.703 37.338,275.376 37.001,272.864 37.457 M125.409 72.369 C 125.574 72.799,125.187 75.614,124.746 77.191 C 124.561 77.851,124.288 79.040,124.138 79.832 C 123.857 81.315,122.862 85.838,121.839 90.276 C 121.520 91.663,121.160 93.337,121.038 93.998 C 120.917 94.658,120.591 96.053,120.313 97.097 C 120.035 98.142,119.808 99.227,119.808 99.509 C 119.808 99.791,119.549 101.043,119.232 102.292 C 118.915 103.540,118.588 104.994,118.504 105.522 C 118.421 106.050,118.118 107.484,117.832 108.707 C 117.046 112.061,115.808 111.752,130.356 111.831 C 145.216 111.912,144.005 111.427,140.989 116.086 C 140.134 117.407,138.719 119.597,137.844 120.954 C 135.256 124.970,132.596 129.058,130.087 132.878 C 127.178 137.306,127.183 137.031,129.954 139.931 C 138.180 148.540,139.397 155.040,133.295 157.778 C 129.844 159.326,128.742 158.737,122.961 152.257 C 119.899 148.824,119.799 148.828,117.420 152.474 C 114.888 156.354,114.903 156.250,116.645 157.863 C 123.609 164.311,123.552 175.813,116.523 182.503 C 114.736 184.204,111.293 186.313,110.302 186.314 C 110.025 186.314,109.171 186.531,108.403 186.795 C 103.772 188.388,97.160 186.456,92.969 182.285 C 82.133 171.498,89.040 153.713,104.251 153.234 C 108.586 153.097,108.370 153.275,109.121 149.211 C 109.745 145.831,109.739 145.780,108.592 144.424 C 105.365 140.609,106.936 134.646,111.711 132.585 C 112.583 132.209,112.812 131.597,112.238 131.178 C 111.878 130.914,109.521 130.852,99.851 130.852 C 89.208 130.852,87.868 130.810,87.524 130.467 C 86.959 129.902,87.126 129.568,90.623 124.250 C 92.360 121.609,94.465 118.367,95.302 117.047 C 96.138 115.726,96.997 114.387,97.210 114.070 C 98.756 111.778,101.507 107.568,103.121 105.023 C 104.178 103.358,105.265 101.708,105.537 101.358 C 105.809 101.007,106.921 99.316,108.008 97.599 C 111.120 92.684,116.070 85.036,117.330 83.193 C 117.963 82.269,119.169 80.432,120.011 79.112 C 124.311 72.368,125.053 71.441,125.409 72.369 M188.407 87.463 C 188.804 87.860,188.844 88.805,188.956 100.188 C 189.041 108.968,189.156 112.622,189.357 112.965 C 192.811 118.854,207.003 118.522,209.878 112.485 L 210.564 111.044 210.564 99.684 C 210.564 85.659,210.142 86.924,214.826 86.918 C 219.470 86.913,218.968 85.124,218.968 101.655 C 218.968 118.087,219.029 117.634,216.467 120.140 C 212.675 123.850,207.961 125.333,199.961 125.331 C 190.281 125.329,183.504 122.581,181.099 117.684 L 180.432 116.327 180.352 103.601 C 180.265 89.723,180.337 88.091,181.072 87.355 C 181.744 86.683,187.716 86.771,188.407 87.463 M249.248 87.650 C 254.475 89.356,257.475 92.659,258.596 97.939 C 259.731 103.291,258.317 108.946,255.222 111.434 C 254.038 112.385,254.030 112.629,255.149 113.620 C 258.202 116.323,259.105 118.082,259.252 121.609 C 259.400 125.185,259.249 125.330,255.378 125.330 C 251.809 125.330,251.535 125.195,251.129 123.227 C 250.232 118.890,246.784 115.327,242.683 114.500 C 239.682 113.894,230.011 113.828,229.529 114.409 C 229.312 114.671,229.219 116.070,229.199 119.391 C 229.162 125.574,229.165 125.570,224.990 125.570 C 222.445 125.570,221.251 125.288,220.883 124.600 C 220.352 123.608,220.587 87.936,221.128 87.395 C 221.597 86.927,221.929 86.915,234.302 86.915 L 246.995 86.915 249.248 87.650 M334.814 87.907 C 340.117 89.959,344.003 94.225,345.173 99.280 C 345.808 102.021,345.819 110.787,345.190 113.085 C 343.644 118.739,339.201 123.140,333.448 124.717 C 330.051 125.648,316.852 125.660,313.293 124.735 C 307.221 123.156,302.986 118.795,301.394 112.482 C 298.550 101.204,303.090 90.774,312.149 87.772 C 314.628 86.951,314.404 86.965,324.010 87.021 L 332.653 87.071 334.814 87.907 M177.643 87.421 C 179.233 87.975,179.875 93.443,178.533 95.005 L 177.954 95.678 170.981 95.798 C 165.713 95.889,163.932 95.995,163.697 96.230 C 163.451 96.476,163.360 99.546,163.265 110.716 C 163.123 127.501,163.700 125.570,158.824 125.570 C 153.945 125.570,154.524 127.524,154.382 110.575 C 154.278 98.201,154.213 96.230,153.902 96.033 C 153.700 95.906,150.883 95.804,147.496 95.802 L 141.451 95.798 140.954 95.166 C 139.918 93.849,140.318 87.868,141.473 87.404 C 142.296 87.073,176.691 87.089,177.643 87.421 M286.622 87.762 C 295.817 89.591,300.513 95.180,298.446 101.835 C 298.185 102.675,297.699 103.761,297.365 104.249 C 296.606 105.359,296.607 105.666,297.372 106.574 C 300.247 109.991,299.894 117.039,296.655 120.862 C 293.022 125.149,292.164 125.330,275.423 125.330 L 262.163 125.330 261.613 124.780 C 260.872 124.039,260.746 120.816,260.745 102.563 L 260.744 88.559 261.446 87.857 L 262.148 87.155 272.858 87.155 C 283.351 87.155,283.629 87.167,286.622 87.762 M131.658 90.696 C 131.723 90.927,131.842 92.305,131.923 93.758 C 132.342 101.285,135.157 104.183,142.066 104.198 C 144.903 104.203,146.201 104.973,145.006 105.940 C 144.533 106.323,143.781 106.362,136.888 106.361 C 128.647 106.360,127.590 106.239,127.346 105.268 C 127.177 104.594,127.178 104.588,128.208 99.880 C 128.627 97.965,129.225 95.175,129.537 93.680 C 129.848 92.184,130.231 90.807,130.387 90.619 C 130.780 90.144,131.516 90.189,131.658 90.696 M317.887 95.544 C 307.620 97.263,306.455 113.536,316.430 115.884 C 318.109 116.279,328.360 116.324,330.132 115.944 C 338.881 114.068,339.642 100.181,331.212 96.235 L 329.532 95.448 324.250 95.405 C 321.345 95.382,318.481 95.444,317.887 95.544 M229.512 96.183 C 229.061 96.725,229.067 104.482,229.518 105.026 C 229.928 105.520,248.682 105.604,249.172 105.114 C 249.588 104.698,249.557 99.617,249.132 98.601 C 248.682 97.524,247.512 96.600,246.043 96.164 C 244.170 95.608,229.976 95.624,229.512 96.183 M269.785 96.958 C 269.236 97.565,269.219 101.212,269.762 101.987 C 270.254 102.691,283.977 102.822,286.564 102.148 C 289.634 101.349,290.597 98.400,288.254 96.971 C 287.129 96.285,270.405 96.273,269.785 96.958 M287.515 110.271 C 287.172 110.481,284.615 110.598,278.552 110.684 C 268.504 110.826,269.388 110.487,269.388 114.203 C 269.388 117.447,268.671 117.207,278.098 117.119 L 285.834 117.047 287.275 116.293 C 288.928 115.428,289.391 114.979,289.907 113.744 C 290.934 111.285,289.432 109.103,287.515 110.271 M145.850 126.037 C 145.927 126.161,146.103 126.890,146.243 127.657 C 146.710 130.230,149.205 133.029,151.917 134.023 C 153.184 134.487,153.967 134.542,161.128 134.672 C 172.108 134.871,172.283 135.090,164.586 139.003 C 161.813 140.413,158.625 142.060,157.503 142.663 C 152.931 145.119,147.381 147.887,146.587 148.106 C 145.456 148.419,145.100 148.069,143.931 145.498 C 142.673 142.732,141.768 141.225,139.758 138.547 C 137.708 135.814,137.706 135.795,139.413 133.109 C 140.159 131.934,141.007 130.594,141.298 130.132 C 143.970 125.878,144.027 125.810,144.889 125.810 C 145.340 125.810,145.773 125.912,145.850 126.037 M208.740 130.868 C 213.108 131.676,216.395 136.120,217.062 142.120 C 217.113 142.581,217.577 140.838,217.775 139.437 C 218.316 135.627,221.975 131.754,225.810 130.931 C 227.555 130.557,237.117 130.503,239.286 130.855 C 242.694 131.408,246.096 134.316,247.191 137.612 C 248.131 140.442,248.731 139.662,248.736 135.606 C 248.742 130.582,248.081 130.868,259.315 131.037 L 267.796 131.165 269.656 132.096 C 271.928 133.233,273.373 134.751,274.556 137.244 C 275.896 140.067,276.410 139.368,276.300 134.872 C 276.198 130.698,274.889 131.092,288.845 131.092 C 298.556 131.092,300.380 131.146,300.674 131.441 C 301.504 132.270,301.346 135.651,300.448 136.308 C 300.127 136.543,298.107 136.615,291.844 136.615 C 282.229 136.615,282.593 136.530,282.593 138.776 C 282.593 140.971,282.475 140.936,289.861 140.936 C 297.769 140.936,297.848 140.969,297.822 144.270 C 297.806 146.473,297.857 146.458,290.310 146.462 C 282.568 146.466,282.742 146.417,282.643 148.627 C 282.527 151.235,281.887 151.058,291.632 151.102 C 298.356 151.133,300.125 151.206,300.442 151.469 C 301.438 152.296,301.537 155.204,300.608 156.352 L 300.163 156.903 289.877 156.977 C 275.408 157.081,276.343 157.395,276.275 152.412 C 276.219 148.276,275.502 147.276,274.694 150.204 C 274.457 151.062,272.924 153.217,271.877 154.163 C 269.101 156.671,267.940 156.903,258.169 156.903 L 250.191 156.903 249.525 156.238 C 248.870 155.583,248.858 155.514,248.739 151.995 C 248.591 147.561,248.132 146.952,247.155 149.891 C 246.473 151.944,245.193 153.423,242.558 155.199 C 238.759 157.760,226.999 157.764,222.782 155.205 C 220.442 153.785,217.767 150.058,217.767 148.218 C 217.767 147.924,217.644 147.110,217.494 146.411 C 217.019 144.193,216.754 145.864,216.719 151.314 C 216.681 157.201,216.677 157.211,214.234 157.433 C 210.699 157.753,210.719 157.800,210.567 148.860 C 210.420 140.299,210.299 139.766,208.099 138.027 C 206.776 136.981,206.591 136.923,204.149 136.781 C 201.220 136.610,201.441 135.814,201.437 146.532 C 201.433 157.690,201.416 157.738,197.645 157.441 C 195.080 157.240,194.982 156.841,194.968 146.507 C 194.955 136.359,195.239 136.933,190.180 136.826 C 185.900 136.735,186.315 135.657,186.315 146.880 C 186.315 156.908,186.320 156.865,184.931 157.251 C 182.627 157.891,180.940 157.460,180.551 156.133 C 180.029 154.353,180.335 131.730,180.890 131.117 C 181.417 130.534,205.756 130.317,208.740 130.868 M228.353 136.862 C 222.458 138.093,221.729 147.261,227.312 149.961 C 228.291 150.435,235.632 150.629,237.506 150.231 C 242.936 149.078,243.428 139.711,238.192 137.173 C 237.199 136.692,230.223 136.471,228.353 136.862 M255.673 137.048 C 255.149 137.413,254.967 149.614,255.471 150.556 C 255.701 150.987,256.011 151.020,259.767 151.020 C 267.556 151.020,269.284 149.643,269.255 143.457 C 269.238 139.882,267.440 137.001,265.098 136.801 C 262.690 136.594,256.076 136.768,255.673 137.048 M74.975 144.275 C 83.809 148.790,82.030 161.507,72.311 163.314 C 62.916 165.062,56.791 152.915,63.714 146.267 C 66.892 143.215,71.357 142.426,74.975 144.275 M139.560 174.223 C 143.990 176.514,144.215 183.002,140.143 191.081 C 138.293 194.752,129.990 202.047,126.165 203.363 C 121.788 204.869,117.178 201.893,117.169 197.555 C 117.165 195.434,118.003 194.238,121.807 190.942 C 126.656 186.741,127.280 185.834,128.790 180.792 C 130.372 175.513,131.325 174.243,134.022 173.821 C 135.724 173.555,138.683 173.769,139.560 174.223 " stroke="none" fill="#2b2b2b" fill-rule="evenodd"></path><path id="path1" d="M0.000 120.048 L 0.000 240.096 200.000 240.096 L 400.000 240.096 400.000 120.048 L 400.000 0.000 200.000 0.000 L 0.000 0.000 0.000 120.048 M279.847 36.693 C 284.502 37.930,286.205 39.331,293.143 47.636 C 298.630 54.204,300.650 56.614,305.641 62.545 C 307.308 64.526,310.590 68.440,312.934 71.242 C 318.601 78.019,317.303 77.311,324.060 77.311 C 336.217 77.311,341.782 79.237,347.802 85.528 C 350.912 88.779,352.864 92.112,354.182 96.424 L 354.982 99.040 354.965 106.363 L 354.948 113.685 354.171 116.185 C 351.226 125.660,342.621 133.134,333.114 134.475 C 330.770 134.806,317.547 134.892,313.866 134.600 C 312.380 134.482,311.142 134.428,311.115 134.480 C 311.088 134.531,311.007 140.030,310.935 146.699 L 310.804 158.824 310.038 160.440 C 308.671 163.326,306.682 165.204,303.842 166.288 C 302.680 166.732,301.180 166.751,257.023 166.867 C 231.933 166.933,211.242 167.062,211.044 167.154 C 210.846 167.247,209.308 167.440,207.626 167.585 C 205.945 167.730,203.710 167.999,202.660 168.184 C 201.610 168.369,199.420 168.639,197.794 168.785 C 196.168 168.931,193.379 169.254,191.597 169.502 C 189.814 169.751,187.113 170.075,185.594 170.224 C 184.076 170.373,181.861 170.647,180.672 170.834 C 179.484 171.021,177.215 171.290,175.630 171.432 C 174.046 171.575,170.858 171.947,168.547 172.260 C 166.236 172.572,163.481 172.899,162.425 172.986 C 159.043 173.263,152.352 174.337,152.022 174.656 C 151.763 174.907,151.757 175.237,151.992 176.429 C 152.535 179.188,152.192 184.786,151.287 187.937 C 146.855 203.375,129.262 216.579,118.848 212.283 C 112.415 209.629,109.910 206.857,108.292 200.605 C 107.578 197.845,107.332 197.608,105.157 197.603 C 94.019 197.573,82.569 186.557,81.105 174.464 C 80.768 171.682,80.692 171.616,78.648 172.340 C 69.773 175.484,59.369 170.870,55.572 162.106 C 51.293 152.233,55.884 141.444,66.194 137.147 L 68.307 136.266 72.389 136.260 C 81.293 136.248,86.945 140.279,90.486 149.166 C 90.909 150.227,91.296 150.177,93.655 148.754 C 94.878 148.017,96.300 147.288,96.815 147.134 C 98.101 146.748,98.710 145.943,98.420 145.010 C 98.299 144.618,98.093 143.955,97.964 143.536 C 97.835 143.117,97.657 141.659,97.569 140.295 C 97.368 137.187,97.747 137.394,92.077 137.293 C 86.822 137.200,86.616 137.152,84.840 135.592 C 81.501 132.660,81.825 129.904,86.315 123.045 C 87.611 121.066,89.230 118.583,89.914 117.527 C 91.823 114.579,94.209 110.915,96.716 107.083 C 97.968 105.168,100.137 101.837,101.537 99.681 C 102.937 97.525,104.838 94.605,105.762 93.192 C 106.687 91.780,108.352 89.222,109.464 87.509 C 110.575 85.796,112.474 82.881,113.682 81.032 C 114.890 79.184,117.380 75.348,119.213 72.509 C 125.055 63.465,125.637 62.905,129.194 62.905 C 134.109 62.905,136.835 67.418,135.291 72.997 C 133.636 78.978,133.720 80.207,135.715 79.170 C 138.154 77.902,137.373 77.949,159.544 77.747 C 171.032 77.643,182.431 77.475,184.874 77.374 L 189.316 77.191 229.347 57.196 C 261.834 40.969,269.730 37.115,271.244 36.747 C 272.270 36.497,273.325 36.235,273.589 36.165 C 274.477 35.930,278.136 36.239,279.847 36.693 M214.056 88.115 C 211.331 88.267,211.578 87.033,211.549 100.668 C 211.522 113.306,211.597 112.739,209.682 114.786 C 205.542 119.212,194.526 119.471,190.060 115.248 C 187.591 112.912,187.654 113.286,187.515 100.120 C 187.449 93.848,187.308 88.580,187.201 88.415 C 186.757 87.730,181.776 88.024,181.499 88.751 C 181.344 89.159,181.281 94.146,181.325 102.617 L 181.393 115.846 181.983 117.047 C 184.145 121.440,189.067 123.676,197.346 124.024 C 207.624 124.457,214.115 122.440,216.807 117.979 L 217.647 116.586 217.715 102.829 C 217.758 93.976,217.696 88.912,217.542 88.623 C 217.234 88.048,216.690 87.968,214.056 88.115 M222.058 88.512 C 221.787 88.839,221.717 91.943,221.664 106.035 C 221.588 126.197,221.230 124.130,224.797 124.130 C 228.210 124.130,228.091 124.310,228.091 119.110 C 228.091 114.377,228.262 113.512,229.281 113.090 C 230.753 112.480,242.101 112.893,244.133 113.631 C 247.855 114.981,250.748 118.014,251.741 121.609 C 252.334 123.755,252.863 124.130,255.302 124.130 C 258.494 124.130,258.960 123.285,257.872 119.478 C 257.270 117.373,256.985 116.950,254.703 114.765 C 252.409 112.570,252.388 112.373,254.269 110.717 C 257.127 108.201,258.190 104.589,257.644 99.250 C 257.087 93.802,253.585 89.860,248.190 88.606 C 245.240 87.920,222.617 87.839,222.058 88.512 M313.205 88.688 C 307.291 90.341,303.284 94.837,302.377 100.840 C 301.922 103.844,302.043 110.726,302.588 112.845 C 304.050 118.536,309.055 123.131,314.603 123.877 C 316.959 124.194,329.917 124.200,332.173 123.886 C 336.897 123.227,341.487 119.467,343.541 114.573 L 344.418 112.485 344.418 106.122 L 344.418 99.760 343.623 97.839 C 341.617 92.992,337.873 89.701,333.103 88.588 C 329.891 87.839,315.992 87.909,313.205 88.688 M141.705 88.884 C 141.516 89.072,141.417 90.069,141.417 91.771 C 141.417 95.040,140.951 94.838,148.473 94.838 L 154.298 94.838 154.880 95.457 L 155.462 96.077 155.532 109.915 C 155.614 126.319,155.215 124.655,159.041 124.557 C 162.637 124.466,162.297 126.017,162.301 109.696 C 162.305 96.311,162.313 96.094,162.803 95.471 L 163.300 94.838 169.945 94.834 C 178.290 94.830,177.769 95.030,177.859 91.795 C 177.915 89.822,177.855 89.294,177.542 88.981 C 177.038 88.477,142.206 88.382,141.705 88.884 M262.473 88.884 C 261.926 89.431,262.072 123.233,262.624 123.732 C 263.132 124.192,286.943 124.339,289.632 123.898 C 296.858 122.715,300.908 112.722,296.394 107.213 C 295.260 105.829,295.276 105.443,296.554 103.251 L 297.599 101.461 297.594 99.050 C 297.584 93.758,293.740 90.194,286.687 88.936 C 284.217 88.495,262.908 88.449,262.473 88.884 M329.094 94.615 C 340.087 96.123,341.745 112.533,331.325 116.697 L 329.292 117.509 323.529 117.518 C 317.007 117.528,315.819 117.298,313.223 115.523 C 305.064 109.945,307.779 96.011,317.294 94.625 C 319.379 94.321,326.907 94.315,329.094 94.615 M247.486 95.457 C 249.893 96.656,250.660 98.347,250.660 102.456 C 250.660 106.925,251.549 106.603,239.236 106.603 C 226.836 106.603,227.999 107.303,228.135 99.913 C 228.238 94.279,227.175 94.838,237.795 94.838 L 246.244 94.838 247.486 95.457 M288.768 95.918 C 291.416 97.801,291.031 101.329,288.008 102.876 L 286.590 103.601 278.034 103.670 C 267.576 103.754,268.547 104.184,268.547 99.474 L 268.547 96.237 269.234 95.647 L 269.920 95.056 278.838 95.127 L 287.755 95.198 288.768 95.918 M130.261 97.019 C 129.660 98.636,128.884 101.723,128.763 102.977 C 128.562 105.069,128.714 105.163,132.279 105.159 C 136.181 105.154,137.011 104.823,135.444 103.897 C 134.043 103.070,132.203 100.752,131.474 98.897 C 130.689 96.897,130.446 96.521,130.261 97.019 M290.346 109.247 C 292.389 110.854,291.520 114.949,288.760 116.731 C 285.926 118.560,270.644 119.166,268.993 117.514 C 268.109 116.630,268.127 111.203,269.017 110.313 L 269.606 109.724 277.480 109.714 C 284.571 109.705,285.474 109.659,286.555 109.255 C 288.189 108.643,289.574 108.640,290.346 109.247 M142.714 129.944 C 138.844 135.835,138.891 135.629,140.846 138.219 C 143.037 141.120,145.498 145.462,145.498 146.426 C 145.498 146.567,145.700 146.790,145.946 146.922 C 146.455 147.194,145.308 147.752,162.185 139.015 C 168.256 135.872,168.264 135.898,161.270 135.884 C 151.080 135.864,147.903 134.532,145.697 129.357 C 144.775 127.194,144.482 127.252,142.714 129.944 M181.659 131.940 C 181.191 132.409,181.060 154.737,181.521 155.598 C 181.719 155.967,182.030 156.062,183.036 156.062 C 185.369 156.062,185.217 156.722,185.354 145.976 L 185.474 136.572 186.067 136.092 C 186.611 135.652,186.947 135.619,190.149 135.697 C 196.256 135.846,196.003 135.388,196.158 146.602 C 196.294 156.394,196.227 156.062,198.063 156.062 C 200.234 156.062,200.111 156.637,200.188 146.182 L 200.257 136.984 200.909 136.297 C 201.555 135.616,201.580 135.611,203.962 135.704 C 207.637 135.849,209.479 136.926,210.890 139.756 L 211.525 141.031 211.528 147.886 C 211.532 155.951,211.522 155.907,213.379 156.015 C 215.644 156.146,215.606 156.281,215.606 148.160 C 215.606 137.083,214.770 134.732,210.039 132.515 L 208.283 131.693 195.165 131.623 C 183.362 131.560,182.007 131.592,181.659 131.940 M226.411 131.892 C 223.095 132.849,220.851 134.685,219.469 137.575 L 218.607 139.376 218.607 143.697 L 218.607 148.019 219.421 149.755 C 221.598 154.400,224.684 155.813,232.653 155.813 C 243.385 155.813,246.959 152.747,246.920 143.577 C 246.895 137.583,245.292 134.655,240.859 132.505 L 239.256 131.727 233.373 131.654 C 229.077 131.601,227.200 131.665,226.411 131.892 M250.233 132.473 C 249.896 133.293,250.028 155.046,250.372 155.390 C 250.777 155.796,260.810 155.957,265.005 155.626 C 271.793 155.090,274.435 151.749,274.426 143.713 C 274.419 137.353,272.557 134.121,268.006 132.566 C 265.887 131.842,250.525 131.762,250.233 132.473 M277.842 132.339 C 277.331 132.849,277.433 154.945,277.948 155.373 C 278.493 155.825,299.454 155.864,299.905 155.413 C 300.306 155.012,300.310 153.099,299.911 152.618 C 299.616 152.263,298.712 152.221,291.315 152.221 C 280.929 152.221,281.307 152.359,281.298 148.556 C 281.291 145.792,281.038 145.882,289.211 145.738 C 296.789 145.605,296.508 145.672,296.515 143.998 C 296.522 142.163,296.420 142.137,289.209 142.137 C 282.970 142.137,282.849 142.127,282.234 141.597 C 280.982 140.517,280.880 137.307,282.062 136.212 L 282.663 135.654 291.014 135.654 C 300.664 135.654,300.189 135.766,300.071 133.525 L 300.000 132.173 289.066 132.110 C 280.762 132.063,278.062 132.118,277.842 132.339 M109.510 135.561 C 107.653 137.672,107.827 143.097,109.753 143.097 C 110.457 143.097,110.829 141.897,111.624 137.067 C 112.135 133.956,111.391 133.425,109.510 135.561 M237.821 135.914 C 244.983 138.126,244.944 149.041,237.764 151.259 C 235.523 151.951,230.022 151.951,227.780 151.258 C 220.653 149.057,220.451 138.397,227.491 135.999 C 229.842 135.198,235.357 135.153,237.821 135.914 M266.627 136.294 C 271.051 138.689,272.090 146.880,268.391 150.208 C 266.480 151.927,265.822 152.094,260.624 152.180 C 253.319 152.300,253.730 152.830,253.831 143.418 L 253.902 136.813 254.594 136.217 L 255.287 135.621 260.477 135.698 C 265.261 135.768,265.741 135.815,266.627 136.294 M125.882 139.624 C 125.644 139.959,125.143 140.634,124.766 141.125 C 124.390 141.615,123.800 142.503,123.455 143.097 C 123.110 143.691,122.364 144.860,121.798 145.693 C 120.598 147.460,120.545 147.850,121.399 148.638 C 121.746 148.958,123.270 150.661,124.787 152.423 C 129.288 157.652,131.990 158.426,134.617 155.240 C 137.117 152.207,135.943 148.535,130.475 142.279 C 127.686 139.088,126.676 138.504,125.882 139.624 M133.345 175.367 C 131.807 176.083,131.465 176.568,130.709 179.112 C 128.563 186.329,127.747 187.582,122.161 192.241 C 118.783 195.059,117.899 196.784,118.725 198.947 C 121.034 204.993,128.424 202.839,136.707 193.704 C 141.247 188.697,143.269 179.278,140.392 176.537 C 138.440 174.678,135.775 174.235,133.345 175.367 " stroke="none" fill="#fbfbfb" fill-rule="evenodd"></path><path id="path2" d="M123.965 73.292 C 123.448 73.984,122.536 75.306,121.937 76.230 C 121.338 77.155,119.825 79.478,118.576 81.393 C 117.326 83.307,115.660 85.872,114.874 87.092 C 114.088 88.311,112.119 91.336,110.497 93.814 C 107.388 98.566,105.642 101.252,103.357 104.802 C 102.591 105.990,100.759 108.800,99.285 111.044 C 97.811 113.289,95.976 116.098,95.208 117.287 C 92.726 121.126,91.356 123.229,89.356 126.271 C 86.131 131.173,85.382 130.852,100.051 130.852 C 114.160 130.852,113.535 130.692,112.388 134.027 C 112.137 134.757,111.808 136.152,111.657 137.125 C 111.506 138.099,111.124 140.030,110.808 141.417 C 110.036 144.803,108.958 150.236,108.045 155.342 C 107.632 157.653,107.142 160.030,106.956 160.624 C 106.770 161.218,106.501 162.461,106.359 163.385 C 106.216 164.310,105.888 165.753,105.631 166.592 C 104.891 169.002,105.076 170.279,106.027 169.330 C 106.412 168.946,108.201 166.263,111.214 161.551 C 111.836 160.579,112.950 158.920,113.690 157.863 C 114.961 156.050,117.428 152.348,119.691 148.860 C 120.248 148.001,121.831 145.570,123.210 143.457 C 124.589 141.345,126.035 139.105,126.424 138.480 C 126.813 137.855,128.319 135.525,129.772 133.301 C 133.627 127.398,135.198 124.979,136.663 122.689 C 139.749 117.866,140.640 116.492,141.717 114.899 C 142.659 113.504,143.104 112.341,142.797 112.072 C 142.764 112.043,137.204 111.962,130.441 111.892 C 116.179 111.744,117.092 111.911,117.609 109.545 C 118.311 106.335,119.372 101.313,119.702 99.640 C 119.897 98.649,120.266 97.029,120.522 96.038 C 120.779 95.048,121.053 93.860,121.131 93.397 C 121.269 92.588,121.511 91.479,123.147 84.154 C 125.888 71.886,125.985 70.585,123.965 73.292 " stroke="none" fill="#f4e608" fill-rule="evenodd"></path><path id="path3" d="M100.960 153.430 C 90.223 155.627,84.473 168.484,89.837 178.305 C 93.421 184.867,102.259 188.909,108.403 186.795 C 109.171 186.531,110.025 186.314,110.302 186.314 C 111.293 186.313,114.736 184.204,116.523 182.503 C 122.610 176.710,123.575 167.751,118.898 160.462 C 118.121 159.252,115.710 156.783,115.305 156.783 C 114.965 156.783,112.046 160.975,110.540 163.625 C 109.694 165.116,106.136 170.398,105.779 170.694 C 104.537 171.725,104.270 168.081,105.375 165.172 C 105.654 164.438,105.989 162.997,106.119 161.970 C 106.249 160.943,106.579 159.383,106.851 158.503 C 107.123 157.623,107.411 156.065,107.490 155.042 L 107.634 153.181 104.777 153.208 C 103.206 153.222,101.489 153.322,100.960 153.430 " stroke="none" fill="#04b384" fill-rule="evenodd"></path><path id="path4" d="M67.947 143.665 C 59.252 146.200,58.180 158.437,66.306 162.398 C 76.713 167.472,85.868 153.735,77.339 145.843 C 75.054 143.729,70.974 142.782,67.947 143.665 " stroke="none" fill="#f40505" fill-rule="evenodd"></path><path id="path5" d="M273.589 36.165 C 273.325 36.235,272.270 36.497,271.244 36.747 C 269.730 37.115,261.834 40.969,229.347 57.196 L 189.316 77.191 184.874 77.374 C 182.431 77.475,171.032 77.643,159.544 77.747 C 137.373 77.949,138.154 77.902,135.715 79.170 C 133.720 80.207,133.636 78.978,135.291 72.997 C 136.835 67.418,134.109 62.905,129.194 62.905 C 125.637 62.905,125.055 63.465,119.213 72.509 C 117.380 75.348,114.890 79.184,113.682 81.032 C 112.474 82.881,110.575 85.796,109.464 87.509 C 108.352 89.222,106.687 91.780,105.762 93.192 C 104.838 94.605,102.937 97.525,101.537 99.681 C 100.137 101.837,97.968 105.168,96.716 107.083 C 94.209 110.915,91.823 114.579,89.914 117.527 C 89.230 118.583,87.611 121.066,86.315 123.045 C 81.825 129.904,81.501 132.660,84.840 135.592 C 86.616 137.152,86.822 137.200,92.077 137.293 C 97.747 137.394,97.368 137.187,97.569 140.295 C 97.657 141.659,97.835 143.117,97.964 143.536 C 98.093 143.955,98.299 144.618,98.420 145.010 C 98.710 145.943,98.101 146.748,96.815 147.134 C 96.300 147.288,94.878 148.017,93.655 148.754 C 91.296 150.177,90.909 150.227,90.486 149.166 C 86.945 140.279,81.293 136.248,72.389 136.260 L 68.307 136.266 66.194 137.147 C 58.541 140.337,54.046 146.808,54.027 154.666 C 53.995 167.293,66.848 176.520,78.648 172.340 C 80.692 171.616,80.768 171.682,81.105 174.464 C 82.569 186.557,94.019 197.573,105.157 197.603 C 107.332 197.608,107.578 197.845,108.292 200.605 C 109.910 206.857,112.415 209.629,118.848 212.283 C 129.262 216.579,146.855 203.375,151.287 187.937 C 152.192 184.786,152.535 179.188,151.992 176.429 C 151.757 175.237,151.763 174.907,152.022 174.656 C 152.352 174.337,159.043 173.263,162.425 172.986 C 163.481 172.899,166.236 172.572,168.547 172.260 C 170.858 171.947,174.046 171.575,175.630 171.432 C 177.215 171.290,179.484 171.021,180.672 170.834 C 181.861 170.647,184.076 170.373,185.594 170.224 C 187.113 170.075,189.814 169.751,191.597 169.502 C 193.379 169.254,196.168 168.931,197.794 168.785 C 199.420 168.639,201.610 168.369,202.660 168.184 C 203.710 167.999,205.945 167.730,207.626 167.585 C 209.308 167.440,210.846 167.247,211.044 167.154 C 211.242 167.062,231.933 166.933,257.023 166.867 C 301.180 166.751,302.680 166.732,303.842 166.288 C 306.682 165.204,308.671 163.326,310.038 160.440 L 310.804 158.824 310.935 146.699 C 311.007 140.030,311.088 134.531,311.115 134.480 C 311.142 134.428,312.380 134.482,313.866 134.600 C 317.547 134.892,330.770 134.806,333.114 134.475 C 342.621 133.134,351.226 125.660,354.171 116.185 L 354.948 113.685 354.965 106.363 L 354.982 99.040 354.182 96.424 C 352.864 92.112,350.912 88.779,347.802 85.528 C 341.782 79.237,336.217 77.311,324.060 77.311 C 317.303 77.311,318.601 78.019,312.934 71.242 C 310.590 68.440,307.308 64.526,305.641 62.545 C 300.650 56.614,298.630 54.204,293.143 47.636 C 287.190 40.511,286.263 39.600,283.518 38.171 C 280.534 36.619,275.622 35.626,273.589 36.165 M281.156 38.297 C 285.229 39.888,285.041 39.709,294.870 51.381 C 296.371 53.163,298.083 55.216,298.675 55.942 C 299.719 57.224,301.738 59.625,309.981 69.388 C 312.155 71.963,314.568 74.856,315.343 75.818 C 317.619 78.639,317.245 78.511,323.231 78.511 C 330.012 78.511,333.980 78.842,336.302 79.600 C 337.300 79.925,338.231 80.192,338.370 80.192 C 339.550 80.192,344.738 83.776,346.975 86.136 C 349.668 88.977,352.469 93.701,353.059 96.399 C 353.233 97.191,353.547 98.483,353.758 99.270 C 354.199 100.915,354.305 109.589,353.913 111.885 C 352.653 119.263,349.743 124.371,344.576 128.277 C 342.160 130.103,338.358 132.172,336.944 132.430 C 336.433 132.523,335.474 132.826,334.814 133.103 C 333.188 133.785,315.867 134.020,312.891 133.399 C 309.798 132.754,309.964 132.063,309.964 145.579 C 309.964 160.454,309.408 162.357,304.305 164.946 L 303.121 165.546 257.143 165.679 C 215.044 165.800,211.043 165.845,209.724 166.215 C 208.932 166.437,206.671 166.728,204.701 166.862 C 202.731 166.997,200.192 167.266,199.059 167.460 C 197.926 167.655,195.270 167.985,193.157 168.193 C 191.044 168.402,187.425 168.826,185.114 169.136 C 182.803 169.447,179.994 169.771,178.872 169.857 C 177.749 169.944,175.588 170.218,174.070 170.466 C 172.551 170.715,169.850 171.032,168.067 171.172 C 166.285 171.312,164.178 171.586,163.385 171.781 C 162.593 171.977,160.392 172.252,158.494 172.392 C 150.834 172.961,149.832 173.493,150.773 176.494 C 152.112 180.768,150.593 188.725,147.292 194.718 C 142.154 204.049,129.577 213.032,122.929 212.119 C 115.519 211.101,109.696 205.708,109.067 199.280 C 108.852 197.073,108.066 196.399,105.710 196.398 C 95.385 196.391,84.586 187.254,82.694 176.924 C 82.491 175.816,82.182 174.063,82.008 173.028 C 81.541 170.246,81.533 170.242,78.120 171.342 C 69.181 174.225,60.049 169.979,56.368 161.228 C 53.489 154.383,55.877 145.153,61.626 140.906 C 71.777 133.407,86.003 137.871,89.474 149.643 C 90.115 151.817,90.704 152.011,92.590 150.670 C 93.232 150.214,94.136 149.650,94.598 149.418 C 95.060 149.185,95.732 148.798,96.090 148.557 C 96.449 148.316,97.284 147.957,97.947 147.761 C 99.794 147.212,99.957 146.613,99.161 143.293 C 98.890 142.159,98.682 140.461,98.681 139.362 C 98.679 136.382,98.937 136.518,92.997 136.371 C 88.133 136.252,87.961 136.230,86.750 135.595 C 82.661 133.449,82.952 129.599,87.718 122.809 C 88.672 121.449,92.558 115.501,93.998 113.196 C 94.790 111.927,95.708 110.528,96.038 110.085 C 96.369 109.643,97.449 108.013,98.439 106.462 C 99.430 104.911,101.321 101.992,102.641 99.974 C 103.962 97.956,106.008 94.813,107.189 92.990 C 108.369 91.167,110.141 88.433,111.125 86.915 C 112.110 85.396,113.614 83.073,114.467 81.753 C 115.321 80.432,116.215 79.082,116.453 78.752 C 116.692 78.421,117.664 76.909,118.614 75.390 C 119.565 73.872,120.570 72.305,120.848 71.909 C 121.126 71.513,122.187 69.934,123.205 68.401 C 125.734 64.593,127.308 63.568,130.007 63.972 C 133.511 64.498,135.486 68.128,134.338 71.931 C 134.142 72.579,133.867 73.943,133.727 74.963 C 133.587 75.982,133.261 77.431,133.003 78.182 C 132.434 79.836,132.369 82.065,132.884 82.263 C 133.086 82.340,133.723 81.991,134.384 81.440 C 135.017 80.914,136.128 80.175,136.855 79.798 L 138.175 79.112 162.665 78.963 C 176.134 78.880,187.587 78.735,188.115 78.638 C 188.828 78.508,244.161 51.154,259.904 43.149 C 272.631 36.677,275.396 36.046,281.156 38.297 M181.072 87.355 C 180.337 88.091,180.265 89.723,180.352 103.601 L 180.432 116.327 181.099 117.684 C 183.504 122.581,190.281 125.329,199.961 125.331 C 207.961 125.333,212.675 123.850,216.467 120.140 C 219.029 117.634,218.968 118.087,218.968 101.655 C 218.968 85.124,219.470 86.913,214.826 86.918 C 210.142 86.924,210.564 85.659,210.564 99.684 L 210.564 111.044 209.878 112.485 C 207.003 118.522,192.811 118.854,189.357 112.965 C 189.156 112.622,189.041 108.968,188.956 100.188 C 188.844 88.805,188.804 87.860,188.407 87.463 C 187.716 86.771,181.744 86.683,181.072 87.355 M221.128 87.395 C 220.587 87.936,220.352 123.608,220.883 124.600 C 221.251 125.288,222.445 125.570,224.990 125.570 C 229.165 125.570,229.162 125.574,229.199 119.391 C 229.219 116.070,229.312 114.671,229.529 114.409 C 230.011 113.828,239.682 113.894,242.683 114.500 C 246.784 115.327,250.232 118.890,251.129 123.227 C 251.535 125.195,251.809 125.330,255.378 125.330 C 259.249 125.330,259.400 125.185,259.252 121.609 C 259.105 118.082,258.202 116.323,255.149 113.620 C 254.030 112.629,254.038 112.385,255.222 111.434 C 258.317 108.946,259.731 103.291,258.596 97.939 C 257.475 92.659,254.475 89.356,249.248 87.650 L 246.995 86.915 234.302 86.915 C 221.929 86.915,221.597 86.927,221.128 87.395 M314.646 87.077 C 304.317 88.604,298.287 100.162,301.394 112.482 C 302.986 118.795,307.221 123.156,313.293 124.735 C 316.852 125.660,330.051 125.648,333.448 124.717 C 339.201 123.140,343.644 118.739,345.190 113.085 C 345.819 110.787,345.808 102.021,345.173 99.280 C 344.003 94.225,340.117 89.959,334.814 87.907 L 332.653 87.071 324.010 87.021 C 319.256 86.993,315.042 87.019,314.646 87.077 M141.473 87.404 C 140.318 87.868,139.918 93.849,140.954 95.166 L 141.451 95.798 147.496 95.802 C 150.883 95.804,153.700 95.906,153.902 96.033 C 154.213 96.230,154.278 98.201,154.382 110.575 C 154.524 127.524,153.945 125.570,158.824 125.570 C 163.700 125.570,163.123 127.501,163.265 110.716 C 163.360 99.546,163.451 96.476,163.697 96.230 C 163.932 95.995,165.713 95.889,170.981 95.798 L 177.954 95.678 178.533 95.005 C 179.875 93.443,179.233 87.975,177.643 87.421 C 176.691 87.089,142.296 87.073,141.473 87.404 M261.446 87.857 L 260.744 88.559 260.745 102.563 C 260.746 120.816,260.872 124.039,261.613 124.780 L 262.163 125.330 275.423 125.330 C 292.164 125.330,293.022 125.149,296.655 120.862 C 299.894 117.039,300.247 109.991,297.372 106.574 C 296.607 105.666,296.606 105.359,297.365 104.249 C 299.804 100.681,299.307 95.489,296.243 92.507 C 291.495 87.887,288.296 87.155,272.858 87.155 L 262.148 87.155 261.446 87.857 M217.542 88.623 C 217.696 88.912,217.758 93.976,217.715 102.829 L 217.647 116.586 216.807 117.979 C 214.115 122.440,207.624 124.457,197.346 124.024 C 189.067 123.676,184.145 121.440,181.983 117.047 L 181.393 115.846 181.325 102.617 C 181.281 94.146,181.344 89.159,181.499 88.751 C 181.776 88.024,186.757 87.730,187.201 88.415 C 187.308 88.580,187.449 93.848,187.515 100.120 C 187.654 113.286,187.591 112.912,190.060 115.248 C 194.526 119.471,205.542 119.212,209.682 114.786 C 211.597 112.739,211.522 113.306,211.549 100.668 C 211.562 94.490,211.647 89.166,211.739 88.836 C 212.010 87.853,217.031 87.669,217.542 88.623 M248.190 88.606 C 253.585 89.860,257.087 93.802,257.644 99.250 C 258.190 104.589,257.127 108.201,254.269 110.717 C 252.388 112.373,252.409 112.570,254.703 114.765 C 256.985 116.950,257.270 117.373,257.872 119.478 C 258.960 123.285,258.494 124.130,255.302 124.130 C 252.863 124.130,252.334 123.755,251.741 121.609 C 250.748 118.014,247.855 114.981,244.133 113.631 C 242.101 112.893,230.753 112.480,229.281 113.090 C 228.262 113.512,228.091 114.377,228.091 119.110 C 228.091 124.310,228.210 124.130,224.797 124.130 C 221.230 124.130,221.588 126.197,221.664 106.035 C 221.717 91.943,221.787 88.839,222.058 88.512 C 222.617 87.839,245.240 87.920,248.190 88.606 M333.103 88.588 C 337.873 89.701,341.617 92.992,343.623 97.839 L 344.418 99.760 344.418 106.122 L 344.418 112.485 343.541 114.573 C 341.487 119.467,336.897 123.227,332.173 123.886 C 329.917 124.200,316.959 124.194,314.603 123.877 C 305.343 122.632,300.470 113.451,302.377 100.840 C 303.284 94.837,307.291 90.341,313.205 88.688 C 315.992 87.909,329.891 87.839,333.103 88.588 M177.542 88.981 C 177.855 89.294,177.915 89.822,177.859 91.795 C 177.769 95.030,178.290 94.830,169.945 94.834 L 163.300 94.838 162.803 95.471 C 162.313 96.094,162.305 96.311,162.301 109.696 C 162.297 126.017,162.637 124.466,159.041 124.557 C 155.215 124.655,155.614 126.319,155.532 109.915 L 155.462 96.077 154.880 95.457 L 154.298 94.838 148.473 94.838 C 140.951 94.838,141.417 95.040,141.417 91.771 C 141.417 90.069,141.516 89.072,141.705 88.884 C 142.206 88.382,177.038 88.477,177.542 88.981 M286.687 88.936 C 293.740 90.194,297.584 93.758,297.594 99.050 L 297.599 101.461 296.554 103.251 C 295.276 105.443,295.260 105.829,296.394 107.213 C 300.908 112.722,296.858 122.715,289.632 123.898 C 286.943 124.339,263.132 124.192,262.624 123.732 C 262.072 123.233,261.926 89.431,262.473 88.884 C 262.908 88.449,284.217 88.495,286.687 88.936 M130.387 90.619 C 130.231 90.807,129.848 92.184,129.537 93.680 C 129.225 95.175,128.627 97.965,128.208 99.880 C 127.178 104.588,127.177 104.594,127.346 105.268 C 127.590 106.239,128.647 106.360,136.888 106.361 C 143.781 106.362,144.533 106.323,145.006 105.940 C 146.201 104.973,144.903 104.203,142.066 104.198 C 135.157 104.183,132.342 101.285,131.923 93.758 C 131.725 90.213,131.354 89.453,130.387 90.619 M317.294 94.625 C 307.779 96.011,305.064 109.945,313.223 115.523 C 315.819 117.298,317.007 117.528,323.529 117.518 L 329.292 117.509 331.325 116.697 C 341.745 112.533,340.087 96.123,329.094 94.615 C 326.907 94.315,319.379 94.321,317.294 94.625 M228.778 95.296 C 227.756 96.123,227.795 105.106,228.825 106.136 C 229.294 106.605,248.411 106.898,249.569 106.453 C 250.357 106.151,250.660 105.040,250.660 102.456 C 250.660 98.347,249.893 96.656,247.486 95.457 L 246.244 94.838 237.795 94.838 C 229.836 94.838,229.312 94.865,228.778 95.296 M269.234 95.647 L 268.547 96.237 268.547 99.474 C 268.547 104.184,267.576 103.754,278.034 103.670 L 286.590 103.601 288.008 102.876 C 291.031 101.329,291.416 97.801,288.768 95.918 L 287.755 95.198 278.838 95.127 L 269.920 95.056 269.234 95.647 M331.212 96.235 C 339.642 100.181,338.881 114.068,330.132 115.944 C 328.360 116.324,318.109 116.279,316.430 115.884 C 309.114 114.162,306.965 102.639,313.053 97.778 C 315.648 95.707,317.334 95.350,324.250 95.405 L 329.532 95.448 331.212 96.235 M246.043 96.164 C 247.512 96.600,248.682 97.524,249.132 98.601 C 249.557 99.617,249.588 104.698,249.172 105.114 C 248.682 105.604,229.928 105.520,229.518 105.026 C 229.067 104.482,229.061 96.725,229.512 96.183 C 229.976 95.624,244.170 95.608,246.043 96.164 M288.254 96.971 C 290.597 98.400,289.634 101.349,286.564 102.148 C 283.977 102.822,270.254 102.691,269.762 101.987 C 269.219 101.212,269.236 97.565,269.785 96.958 C 270.405 96.273,287.129 96.285,288.254 96.971 M131.474 98.897 C 132.203 100.752,134.043 103.070,135.444 103.897 C 137.011 104.823,136.181 105.154,132.279 105.159 C 128.714 105.163,128.562 105.069,128.763 102.977 C 128.884 101.723,129.660 98.636,130.261 97.019 C 130.446 96.521,130.689 96.897,131.474 98.897 M286.555 109.255 C 285.474 109.659,284.571 109.705,277.480 109.714 L 269.606 109.724 269.017 110.313 C 268.127 111.203,268.109 116.630,268.993 117.514 C 270.644 119.166,285.926 118.560,288.760 116.731 C 293.602 113.605,291.746 107.311,286.555 109.255 M289.778 110.597 C 291.109 112.288,289.968 114.883,287.275 116.293 L 285.834 117.047 278.098 117.119 C 268.671 117.207,269.388 117.447,269.388 114.203 C 269.388 110.487,268.504 110.826,278.552 110.684 C 284.615 110.598,287.172 110.481,287.515 110.271 C 288.329 109.775,289.235 109.905,289.778 110.597 M142.947 127.551 C 142.330 128.508,141.588 129.670,141.298 130.132 C 141.007 130.594,140.159 131.934,139.413 133.109 C 137.706 135.795,137.708 135.814,139.758 138.547 C 141.768 141.225,142.673 142.732,143.931 145.498 C 145.100 148.069,145.456 148.419,146.587 148.106 C 147.381 147.887,152.931 145.119,157.503 142.663 C 158.625 142.060,161.813 140.413,164.586 139.003 C 172.283 135.090,172.108 134.871,161.128 134.672 C 153.967 134.542,153.184 134.487,151.917 134.023 C 149.205 133.029,146.710 130.230,146.243 127.657 C 145.756 124.975,144.629 124.938,142.947 127.551 M145.697 129.357 C 147.903 134.532,151.080 135.864,161.270 135.884 C 168.264 135.898,168.256 135.872,162.185 139.015 C 145.308 147.752,146.455 147.194,145.946 146.922 C 145.700 146.790,145.498 146.567,145.498 146.426 C 145.498 145.462,143.037 141.120,140.846 138.219 C 138.891 135.629,138.844 135.835,142.714 129.944 C 144.482 127.252,144.775 127.194,145.697 129.357 M180.890 131.117 C 180.335 131.730,180.029 154.353,180.551 156.133 C 180.940 157.460,182.627 157.891,184.931 157.251 C 186.320 156.865,186.315 156.908,186.315 146.880 C 186.315 135.657,185.900 136.735,190.180 136.826 C 195.239 136.933,194.955 136.359,194.968 146.507 C 194.982 156.841,195.080 157.240,197.645 157.441 C 201.416 157.738,201.433 157.690,201.437 146.532 C 201.441 135.814,201.220 136.610,204.149 136.781 C 206.591 136.923,206.776 136.981,208.099 138.027 C 210.299 139.766,210.420 140.299,210.567 148.860 C 210.719 157.800,210.699 157.753,214.234 157.433 C 216.677 157.211,216.681 157.201,216.719 151.314 C 216.754 145.864,217.019 144.193,217.494 146.411 C 217.644 147.110,217.767 147.924,217.767 148.218 C 217.767 150.058,220.442 153.785,222.782 155.205 C 226.999 157.764,238.759 157.760,242.558 155.199 C 245.193 153.423,246.473 151.944,247.155 149.891 C 248.132 146.952,248.591 147.561,248.739 151.995 C 248.858 155.514,248.870 155.583,249.525 156.238 L 250.191 156.903 258.169 156.903 C 267.940 156.903,269.101 156.671,271.877 154.163 C 272.924 153.217,274.457 151.062,274.694 150.204 C 275.502 147.276,276.219 148.276,276.275 152.412 C 276.343 157.395,275.408 157.081,289.877 156.977 L 300.163 156.903 300.608 156.352 C 301.537 155.204,301.438 152.296,300.442 151.469 C 300.125 151.206,298.356 151.133,291.632 151.102 C 281.887 151.058,282.527 151.235,282.643 148.627 C 282.742 146.417,282.568 146.466,290.310 146.462 C 297.857 146.458,297.806 146.473,297.822 144.270 C 297.848 140.969,297.769 140.936,289.861 140.936 C 282.475 140.936,282.593 140.971,282.593 138.776 C 282.593 136.530,282.229 136.615,291.844 136.615 C 298.107 136.615,300.127 136.543,300.448 136.308 C 301.346 135.651,301.504 132.270,300.674 131.441 C 300.380 131.146,298.556 131.092,288.845 131.092 C 274.889 131.092,276.198 130.698,276.300 134.872 C 276.410 139.368,275.896 140.067,274.556 137.244 C 273.373 134.751,271.928 133.233,269.656 132.096 L 267.796 131.165 259.315 131.037 C 248.081 130.868,248.742 130.582,248.736 135.606 C 248.731 139.662,248.131 140.442,247.191 137.612 C 246.096 134.316,242.694 131.408,239.286 130.855 C 237.117 130.503,227.555 130.557,225.810 130.931 C 221.975 131.754,218.316 135.627,217.775 139.437 C 217.577 140.838,217.113 142.581,217.062 142.120 C 216.395 136.120,213.108 131.676,208.740 130.868 C 205.756 130.317,181.417 130.534,180.890 131.117 M112.552 131.875 C 112.456 132.107,112.078 132.427,111.711 132.585 C 106.907 134.658,105.358 140.635,108.635 144.462 C 109.102 145.008,109.484 145.572,109.484 145.716 C 109.484 146.425,109.923 145.852,110.065 144.958 C 110.154 144.397,110.284 143.708,110.354 143.427 C 110.461 142.996,110.393 142.934,109.916 143.025 C 107.867 143.416,107.560 137.777,109.510 135.561 C 110.565 134.363,111.865 133.989,111.902 134.874 C 111.912 135.105,112.132 134.700,112.391 133.974 C 112.832 132.734,112.978 130.836,112.552 131.875 M210.039 132.515 C 214.770 134.732,215.606 137.083,215.606 148.160 C 215.606 156.281,215.644 156.146,213.379 156.015 C 211.522 155.907,211.532 155.951,211.528 147.886 L 211.525 141.031 210.890 139.756 C 209.479 136.926,207.637 135.849,203.962 135.704 C 201.580 135.611,201.555 135.616,200.909 136.297 L 200.257 136.984 200.188 146.182 C 200.111 156.637,200.234 156.062,198.063 156.062 C 196.227 156.062,196.294 156.394,196.158 146.602 C 196.003 135.388,196.256 135.846,190.149 135.697 C 186.947 135.619,186.611 135.652,186.067 136.092 L 185.474 136.572 185.354 145.976 C 185.217 156.722,185.369 156.062,183.036 156.062 C 182.030 156.062,181.719 155.967,181.521 155.598 C 181.060 154.737,181.191 132.409,181.659 131.940 C 182.007 131.592,183.362 131.560,195.165 131.623 L 208.283 131.693 210.039 132.515 M240.859 132.505 C 245.292 134.655,246.895 137.583,246.920 143.577 C 246.959 152.747,243.385 155.813,232.653 155.813 C 224.684 155.813,221.598 154.400,219.421 149.755 L 218.607 148.019 218.607 143.697 L 218.607 139.376 219.469 137.575 C 220.496 135.427,222.093 133.757,223.992 132.846 C 226.490 131.647,227.056 131.575,233.373 131.654 L 239.256 131.727 240.859 132.505 M268.006 132.566 C 272.557 134.121,274.419 137.353,274.426 143.713 C 274.435 151.749,271.793 155.090,265.005 155.626 C 260.810 155.957,250.777 155.796,250.372 155.390 C 250.028 155.046,249.896 133.293,250.233 132.473 C 250.525 131.762,265.887 131.842,268.006 132.566 M300.071 133.525 C 300.189 135.766,300.664 135.654,291.014 135.654 L 282.663 135.654 282.062 136.212 C 280.880 137.307,280.982 140.517,282.234 141.597 C 282.849 142.127,282.970 142.137,289.209 142.137 C 296.420 142.137,296.522 142.163,296.515 143.998 C 296.508 145.672,296.789 145.605,289.211 145.738 C 281.038 145.882,281.291 145.792,281.298 148.556 C 281.307 152.359,280.929 152.221,291.315 152.221 C 298.712 152.221,299.616 152.263,299.911 152.618 C 300.310 153.099,300.306 155.012,299.905 155.413 C 299.454 155.864,278.493 155.825,277.948 155.373 C 277.433 154.945,277.331 132.849,277.842 132.339 C 278.062 132.118,280.762 132.063,289.066 132.110 L 300.000 132.173 300.071 133.525 M227.491 135.999 C 220.451 138.397,220.653 149.057,227.780 151.258 C 230.022 151.951,235.523 151.951,237.764 151.259 C 244.944 149.041,244.983 138.126,237.821 135.914 C 235.357 135.153,229.842 135.198,227.491 135.999 M254.594 136.217 L 253.902 136.813 253.831 143.418 C 253.730 152.830,253.319 152.300,260.624 152.180 C 265.822 152.094,266.480 151.927,268.391 150.208 C 271.307 147.584,271.345 140.769,268.462 137.735 C 266.703 135.884,266.312 135.784,260.477 135.698 L 255.287 135.621 254.594 136.217 M127.050 137.455 C 126.763 137.983,126.347 138.685,126.125 139.016 C 125.891 139.362,125.861 139.489,126.053 139.316 C 127.713 137.822,135.884 147.919,135.892 151.473 C 135.899 154.624,133.731 157.004,130.839 157.018 C 129.184 157.026,127.926 156.070,124.790 152.423 C 123.275 150.661,121.791 149.004,121.494 148.739 C 121.196 148.475,120.881 148.069,120.793 147.836 C 120.667 147.497,120.461 147.677,119.767 148.731 C 119.127 149.703,119.020 149.984,119.362 149.801 C 120.269 149.316,120.642 149.633,125.415 154.944 C 128.592 158.478,130.336 159.106,133.295 157.778 C 139.360 155.057,138.155 148.452,130.062 140.057 C 128.895 138.847,127.857 137.550,127.755 137.176 L 127.570 136.495 127.050 137.455 M238.192 137.173 C 243.428 139.711,242.936 149.078,237.506 150.231 C 235.632 150.629,228.291 150.435,227.312 149.961 C 221.729 147.261,222.458 138.093,228.353 136.862 C 230.223 136.471,237.199 136.692,238.192 137.173 M265.098 136.801 C 267.440 137.001,269.238 139.882,269.255 143.457 C 269.284 149.643,267.556 151.020,259.767 151.020 C 256.011 151.020,255.701 150.987,255.471 150.556 C 254.967 149.614,255.149 137.413,255.673 137.048 C 256.076 136.768,262.690 136.594,265.098 136.801 M107.994 152.880 C 107.772 153.135,107.570 154.017,107.482 155.114 C 107.402 156.110,107.116 157.641,106.847 158.514 C 106.577 159.388,106.249 160.943,106.119 161.970 C 105.989 162.997,105.654 164.438,105.375 165.172 C 104.270 168.081,104.537 171.725,105.779 170.694 C 106.136 170.398,109.694 165.116,110.540 163.625 C 111.440 162.042,112.550 160.328,113.834 158.541 C 115.102 156.776,115.839 155.336,115.305 155.666 C 115.051 155.823,112.918 158.903,111.065 161.788 C 107.982 166.591,106.403 168.953,106.021 169.335 C 105.076 170.280,104.893 168.995,105.631 166.592 C 105.888 165.753,106.216 164.310,106.359 163.385 C 106.501 162.461,106.770 161.218,106.956 160.624 C 107.342 159.389,108.581 152.679,108.448 152.546 C 108.400 152.498,108.195 152.648,107.994 152.880 M134.022 173.821 C 131.325 174.243,130.372 175.513,128.790 180.792 C 127.280 185.834,126.656 186.741,121.807 190.942 C 118.003 194.238,117.165 195.434,117.169 197.555 C 117.178 201.893,121.788 204.869,126.165 203.363 C 129.990 202.047,138.293 194.752,140.143 191.081 C 145.745 179.966,143.064 172.406,134.022 173.821 M138.659 175.294 C 141.224 176.646,141.771 177.819,141.601 181.612 C 141.322 187.861,138.832 192.272,132.539 197.665 C 126.583 202.770,122.446 203.808,119.849 200.850 C 117.407 198.070,118.053 195.668,122.161 192.241 C 127.747 187.582,128.563 186.329,130.709 179.112 C 131.043 177.989,131.496 176.816,131.716 176.505 C 132.831 174.927,136.686 174.255,138.659 175.294 " stroke="none" fill="#9b9b9b" fill-rule="evenodd"></path></g></svg>